# AST/ASF file generated using VICON BodyLanguage
# -----------------------------------------------
:version 1.10
:name VICON
:units
  mass 1.0
  length 0.45
  angle deg
:documentation
   .ast/.asf automatically generated from VICON data using
   VICON BodyBuilder and BodyLanguage model FoxedUp or BRILLIANT.MOD
:root
   order TX TY TZ RX RY RZ
   axis XYZ
   position 0 0 0  
   orientation 0 0 0 
:bonedata
  begin
     id 1 
     name lhipjoint
     direction 0.541323 -0.757556 0.364798 
     length 2.47576 
     axis 0 0 0  XYZ
  end
  begin
     id 2 
     name lfemur
     direction 0.34202 -0.939693 0  
     length 7.46493  
     axis 0 0 20  XYZ
    dof rx ry rz
    limits (-160.0 20.0)
           (-70.0 70.0)
           (-60.0 70.0)
  end
  begin
     id 3 
     name ltibia
     direction 0.34202 -0.939693 0   
     length 7.73805   
     axis 0 0 20   XYZ
    dof rx
    limits (-10.0 170.0)
  end
  begin
     id 4 
     name lfoot
     direction 0.107174 -0.294458 0.949636   
     length 2.25864   
     axis -90 7.62852e-016 20   XYZ
    dof rx rz
    limits (-45.0 90.0)
           (-70.0 20.0)
  end
  begin
     id 5 
     name ltoes
     direction 1.53606e-011 -4.21934e-011 1   
     length 1.12451   
     axis -90 7.62852e-016 20   XYZ
    dof rx
    limits (-90.0 20.0)
  end
  begin
     id 6 
     name rhipjoint
     direction -0.524745 -0.766967 0.36933   
     length 2.44538  
     axis 0 0 0  XYZ 
  end
  begin
     id 7 
     name rfemur
     direction -0.34202 -0.939693 0   
     length 7.61604   
     axis 0 0 -20   XYZ
    dof rx ry rz
    limits (-160.0 20.0)
           (-70.0 70.0)
           (-70.0 60.0)
  end
  begin
     id 8 
     name rtibia
     direction -0.34202 -0.939693 0   
     length 7.61056   
     axis 0 0 -20   XYZ
    dof rx
    limits (-10.0 170.0)
 end
 begin
     id 9 
     name rfoot
     direction -0.12616 -0.346623 0.929482   
     length 2.46372  
     axis -90 -7.62852e-016 -20   XYZ
    dof rx rz
    limits (-45.0 90.0)
           (-20.0 70.0)
  end
  begin
     id 10 
     name rtoes
     direction -1.53531e-011 -4.22004e-011 1   
     length 1.21611   
     axis -90 -7.62852e-016 -20   XYZ
    dof rx
    limits (-90.0 20.0)
  end
  begin
     id 11 
     name lowerback
     direction -0.000778023 0.997293 -0.0735223   
     length 2.06139   
     axis 0 0 0   XYZ
    dof rx ry rz
    limits (-20.0 45.0)
           (-30.0 30.0)
           (-30.0 30.0)
  end
  begin
     id 12 
     name upperback
     direction 0.0222598 0.999722 -0.0078355   
     length 2.06383   
     axis 0 0 0   XYZ
    dof rx ry rz
    limits (-20.0 45.0)
           (-30.0 30.0)
           (-30.0 30.0)
  end
  begin
     id 13 
     name thorax
     direction 0.0219654 0.999405 0.0265994   
     length 2.07163   
     axis 0 0 0   XYZ
    dof rx ry rz
    limits (-20.0 45.0)
           (-30.0 30.0)
           (-30.0 30.0)
  end
  begin
     id 14 
     name lowerneck
     direction 0.0213282 0.988147 0.15202   
     length 1.75969   
     axis 0 0 0   XYZ
    dof rx ry rz
    limits (-20.0 45.0)
           (-30.0 30.0)
           (-30.0 30.0)
  end
  begin
     id 15 
     name upperneck
     direction -0.0546456 0.982624 -0.177379   
     length 1.79244   
     axis 0 0 0   XYZ
    dof rx ry rz
    limits (-20.0 45.0)
           (-30.0 30.0)
           (-30.0 30.0)
  end
  begin
     id 16
     name head
     direction -0.0199987 0.996855 -0.076686  
     length 1.80555  
     axis 0 0 0   XYZ
    dof rx ry rz
    limits (-20.0 45.0)
           (-30.0 30.0)
           (-30.0 30.0)
  end
  begin
     id 17 
     name lclavicle
     direction 0.929565 0.363219 -0.063096  
     length 3.55722  
     axis 0 0 0   XYZ
    dof ry rz
    limits (-20.0 10.0)
           (0.0 20.0)
  end
  begin
     id 18 
     name lhumerus
     direction 1 -4.48993e-011 -2.36203e-027   
     length 4.92785   
     axis 180 -30 -90   XYZ
    dof rx ry rz
    limits (-60.0 90.0)
           (-90.0 90.0)
           (-90.0 90.0)
  end
  begin
     id 19
     name lradius
     direction 1 -4.48947e-011 2.02997e-027   
     length 3.44052   
     axis 180 -30 -90   XYZ
    dof rx
    limits (-10.0 170.0)
  end
  begin
     id 20
     name lwrist
     direction 1 -4.48962e-011 1.45991e-027   
     length 1.72026   
     axis 1.49639e-024 90 90   XYZ
    dof ry
    limits (-180.0 0.0)
 end
  begin
     id 21 
     name lhand
     direction 1 -4.48984e-011 2.91906e-027   
     length 0.654326   
     axis -1.863e-015 90 90   XYZ
    dof rx rz
    limits (-90.0 90.0)
           (-45.0 45.0)
  end
  begin
     id 22 
     name lfingers
     direction 1 -4.48961e-011 5.83968e-027   
     length 0.527534   
     axis -3.72598e-015 90 90   XYZ
    dof rx
    limits (0.0 90.0)
  end
  begin
     id 23
     name lthumb
     direction 0.707107 -6.34963e-011 0.707107   
     length 0.757437   
     axis -90 45 -6.68868e-015   XYZ
    dof rx rz
    limits (-45.0 45.0)
           (-45.0 45.0)
  end
  begin
     id 24 
     name rclavicle
     direction -0.902944 0.422599 -0.0781198   
     length 3.54432  
     axis 0 0 0   XYZ 
    dof ry rz
    limits (-10.0 20.0)
           (-20.0 0.0)
  end
  begin
     id 25 
     name rhumerus
     direction -1 -4.48953e-011 -4.75835e-028  
     length 5.09181   
     axis 180 30 90   XYZ
    dof rx ry rz
    limits (-90.0 60.0)
           (-90.0 90.0)
           (-90.0 90.0)
  end
  begin
     id 26 
     name rradius
     direction -1 -4.48986e-011 -3.25889e-027   
     length 3.49865   
     axis 180 30 90   XYZ
    dof rx
    limits (-10.0 170.0)
  end
  begin
     id 27 
     name rwrist
     direction -1 -4.48963e-011 1.45989e-027   
     length 1.74933   
     axis 1.49639e-024 -90 -90   XYZ
    dof ry
    limits (-180.0 0.0)
  end
  begin
     id 28
     name rhand
     direction -1 -4.49003e-011 2.91844e-027   
     length 0.66641   
     axis -1.863e-015 -90 -90   XYZ
    dof rx rz
    limits (-90.0 90.0)
           (-45.0 45.0)
  end
  begin
     id 29
     name rfingers
     direction -1 -4.48973e-011 5.83886e-027   
     length 0.537277   
     axis -3.72598e-015 -90 -90   XYZ
    dof rx
    limits (0.0 90.0)
  end
  begin
     id 30
     name rthumb
     direction -0.707107 -6.34976e-011 0.707107   
     length 0.771425   
     axis -90 -45 6.68868e-015   XYZ
    dof rx rz
    limits (-45.0 45.0)
           (-45.0 45.0)
  end
:hierarchy
  begin
    root lhipjoint rhipjoint lowerback
    lhipjoint lfemur
    lfemur ltibia
    ltibia lfoot
    lfoot ltoes
    rhipjoint rfemur
    rfemur rtibia
    rtibia rfoot
    rfoot rtoes
    lowerback upperback
    upperback thorax
    thorax lowerneck lclavicle rclavicle
    lowerneck upperneck
    upperneck head
    lclavicle lhumerus
    lhumerus lradius
    lradius lwrist
    lwrist lhand lthumb
    lhand lfingers
    rclavicle rhumerus
    rhumerus rradius
    rradius rwrist
    rwrist rhand rthumb
    rhand rfingers
  end

#!OML:ASF H:\LiuWeirdWalks\Patient Classification 1\Patient 1\Session 1\male.ASF
:FULLY-SPECIFIED
:DEGREES
17
root 0.325378 17.7819 -30.3839 4.67281 -2.67387 -2.1804
lowerback 2.23129 -3.53782 -0.252582
upperback -1.61598 -4.63876 3.94897
thorax -2.56454 -2.27974 4.40966
lowerneck -18.4684 3.72901 11.6523
upperneck 31.365 5.91045 -13.0861
head 14.7094 2.16483 -6.45526
rclavicle 1.85367e-014 -7.95139e-015
rhumerus -34.4312 -6.67436 -75.8672
rradius 27.6999
rwrist -6.268
rhand -14.2514 -1.39476
rfingers 7.12502
rthumb 11.8867 -31.0373
lclavicle 1.85367e-014 -7.95139e-015
lhumerus -36.3284 6.17866 82.4305
lradius 31.9641
lwrist 7.81573
lhand -11.9866 -0.0847895
lfingers 7.12502
lthumb 14.0699 29.4189
rfemur -14.2976 1.53231 19.0107
rtibia 34.4047
rfoot -16.0026 -18.4024
rtoes -5.03566
lfemur -10.3637 -0.412934 -16.295
ltibia 30.6838
lfoot -14.8125 22.1898
ltoes -8.65737
18
root 0.320284 17.7831 -30.3805 4.71285 -2.66716 -2.19532
lowerback 2.17787 -3.51241 -0.205034
upperback -1.57716 -4.60577 3.91879
thorax -2.50305 -2.26549 4.34473
lowerneck -18.4798 3.64646 11.5788
upperneck 31.3195 5.782 -13.0161
head 14.6621 2.10842 -6.42981
rclavicle -1.30204e-014 2.46493e-014
rhumerus -34.4328 -6.85168 -75.867
rradius 27.696
rwrist -6.22827
rhand -14.2309 -1.37822
rfingers 7.12502
rthumb 11.9065 -31.0197
lclavicle -1.30204e-014 2.46493e-014
lhumerus -36.2556 6.06006 82.4298
lradius 31.9589
lwrist 7.82785
lhand -12.0023 -0.0796211
lfingers 7.12502
lthumb 14.0548 29.4251
rfemur -14.3267 1.52715 19.0462
rtibia 34.399
rfoot -15.983 -18.4078
rtoes -5.07423
lfemur -10.3948 -0.450769 -16.2634
ltibia 30.6926
lfoot -14.8313 22.2122
ltoes -8.62066
19
root 0.315113 17.7841 -30.3771 4.75031 -2.66955 -2.19489
lowerback 2.12995 -3.43376 -0.161158
upperback -1.53605 -4.50254 3.84326
thorax -2.45069 -2.21608 4.23292
lowerneck -18.528 3.46471 11.4313
upperneck 31.3274 5.49561 -12.8432
head 14.6129 1.98733 -6.37765
rclavicle 5.1684e-015 -4.77083e-015
rhumerus -34.4847 -7.22106 -75.8395
rradius 27.697
rwrist -6.15713
rhand -14.1979 -1.35221
rfingers 7.12502
rthumb 11.9382 -30.9918
lclavicle 5.1684e-015 -4.77083e-015
lhumerus -36.1424 5.75811 82.447
lradius 31.9405
lwrist 7.86002
lhand -12.0344 -0.0592117
lfingers 7.12502
lthumb 14.0239 29.4477
rfemur -14.3576 1.52116 19.0633
rtibia 34.3996
rfoot -15.9655 -18.4058
rtoes -5.11254
lfemur -10.4176 -0.493636 -16.2514
ltibia 30.69
lfoot -14.8295 22.2519
ltoes -8.60291
20
root 0.309774 17.785 -30.3736 4.78137 -2.6762 -2.17271
lowerback 2.10768 -3.35187 -0.152169
upperback -1.51805 -4.39513 3.7638
thorax -2.43415 -2.16329 4.13952
lowerneck -18.5183 3.27548 11.3088
upperneck 31.3107 5.19935 -12.6872
head 14.5403 1.86423 -6.33654
rclavicle 2.76808e-014 -1.82882e-014
rhumerus -34.5774 -7.59815 -75.7977
rradius 27.6967
rwrist -6.08221
rhand -14.163 -1.32965
rfingers 7.12502
rthumb 11.9719 -30.9673
lclavicle 2.76808e-014 -1.82882e-014
lhumerus -36.0688 5.44133 82.4657
lradius 31.919
lwrist 7.90168
lhand -12.0698 -0.0575301
lfingers 7.12502
lthumb 13.9898 29.4517
rfemur -14.3862 1.51196 19.0559
rtibia 34.4073
rfoot -15.9567 -18.4005
rtoes -5.14455
lfemur -10.4288 -0.539122 -16.265
ltibia 30.6756
lfoot -14.8121 22.3032
ltoes -8.60162
21
root 0.304211 17.7858 -30.3702 4.80819 -2.68168 -2.13684
lowerback 2.09234 -3.12474 -0.0863399
upperback -1.47242 -4.09483 3.54526
thorax -2.41993 -2.01585 3.86317
lowerneck -18.6293 2.80905 10.9765
upperneck 31.366 4.44877 -12.2219
head 14.4353 1.55658 -6.20671
rclavicle -6.73383e-015 5.48646e-014
rhumerus -34.7838 -8.51829 -75.7226
rradius 27.7343
rwrist -5.97863
rhand -14.1549 -1.33416
rfingers 7.12502
rthumb 11.9797 -30.9713
lclavicle -6.73383e-015 5.48646e-014
lhumerus -35.8256 4.56972 82.5229
lradius 31.853
lwrist 8.01526
lhand -12.0899 -0.0239405
lfingers 7.12502
lthumb 13.9704 29.4867
rfemur -14.4131 1.50249 19.0344
rtibia 34.4211
rfoot -15.9575 -18.3975
rtoes -5.16423
lfemur -10.4328 -0.591089 -16.2939
ltibia 30.6518
lfoot -14.7748 22.3647
ltoes -8.63317
22
root 0.298621 17.7863 -30.3667 4.82904 -2.68729 -2.09545
lowerback 2.10145 -3.04638 -0.087202
upperback -1.44916 -3.99216 3.46071
thorax -2.41365 -1.96521 3.77221
lowerneck -18.6774 2.62728 10.8306
upperneck 31.3809 4.16525 -12.0511
head 14.3965 1.43705 -6.15579
rclavicle -7.30534e-014 1.74931e-014
rhumerus -34.8606 -8.85335 -75.6992
rradius 27.7524
rwrist -5.96423
rhand -14.1682 -1.36789
rfingers 7.12502
rthumb 11.9669 -31.0058
lclavicle -7.30534e-014 1.74931e-014
lhumerus -35.7256 4.24443 82.5471
lradius 31.823
lwrist 8.09795
lhand -12.095 0.0061994
lfingers 7.12502
lthumb 13.9654 29.5171
rfemur -14.4349 1.49139 19.0075
rtibia 34.4386
rfoot -15.966 -18.3954
rtoes -5.17564
lfemur -10.4277 -0.633617 -16.3286
ltibia 30.6233
lfoot -14.7361 22.4184
ltoes -8.66837
23
root 0.292947 17.7869 -30.3633 4.84937 -2.68674 -2.05898
lowerback 2.12574 -2.97427 -0.0853992
upperback -1.42477 -3.89735 3.38438
thorax -2.41355 -1.91843 3.68945
lowerneck -18.749 2.45652 10.6985
upperneck 31.3946 3.89987 -11.9049
head 14.3677 1.32339 -6.1153
rclavicle 2.59414e-014 -2.06736e-014
rhumerus -34.9211 -9.16281 -75.6776
rradius 27.7705
rwrist -5.96432
rhand -14.194 -1.40495
rfingers 7.12502
rthumb 11.942 -31.0443
lclavicle 2.59414e-014 -2.06736e-014
lhumerus -35.6163 3.93167 82.5764
lradius 31.7932
lwrist 8.17505
lhand -12.0847 0.0532382
lfingers 7.12502
lthumb 13.9754 29.5635
rfemur -14.4551 1.48243 18.9876
rtibia 34.4571
rfoot -15.9807 -18.4011
rtoes -5.17372
lfemur -10.4219 -0.68032 -16.357
ltibia 30.5945
lfoot -14.6974 22.4722
ltoes -8.70208
